<svg xmlns="http://www.w3.org/2000/svg" viewBox="0 0 200 240" fill="none">
  <!-- Left panel -->
  <path d="M40 30 L100 20 L100 200 L30 210 Z" fill="#f8fafc" stroke="#e2e8f0" stroke-width="2"/>
  <!-- Right panel -->
  <path d="M100 20 L160 30 L170 210 L100 200 Z" fill="#f1f5f9" stroke="#e2e8f0" stroke-width="2"/>
  <!-- Hinge pin -->
  <circle cx="100" cy="20" r="5" fill="#64748b"/>
  <!-- Left panel image area -->
  <rect x="44" y="40" width="50" height="60" rx="1" fill="#dbeafe" stroke="#bfdbfe" stroke-width="1"/>
  <path d="M44 78 L60 64 L72 74 L82 60 L94 68 L94 100 L44 100 Z" fill="#bfdbfe"/>
  <circle cx="76" cy="52" r="8" fill="#fde68a"/>
  <!-- Left panel text lines -->
  <rect x="44" y="108" width="50" height="5" rx="2.5" fill="#cbd5e1"/>
  <rect x="48" y="118" width="40" height="4" rx="2" fill="#e2e8f0"/>
  <rect x="52" y="127" width="30" height="3" rx="1.5" fill="#e2e8f0"/>
  <!-- Bottom spreader bar -->
  <path d="M32 210 L100 202 L168 210" stroke="#94a3b8" stroke-width="2.5" stroke-linecap="round"/>
  <!-- Feet -->
  <rect x="26" y="208" width="18" height="6" rx="3" fill="#64748b"/>
  <rect x="156" y="208" width="18" height="6" rx="3" fill="#64748b"/>
</svg>
